<svg id="Capa_1" data-name="Capa 1" xmlns="http://www.w3.org/2000/svg" viewBox="0 0 30.5 30.38"><title>telephone</title><path d="M21,25a32.39,32.39,0,0,0,8.44-10.77,16.82,16.82,0,0,0,1.78-6c0-.15,0-.29,0-.43A5,5,0,0,0,29.59,4l0,0c-.45-.37-.84-.79-1.27-1.22-.28-.3-.58-.6-.88-.89a3.05,3.05,0,0,0-4.55,0l-3.79,3.8a3.06,3.06,0,0,0-1,2.22,3.19,3.19,0,0,0,1,2.25l2.26,2.26c-.12.21-.23.43-.33.63a5,5,0,0,1-.38.69,23.65,23.65,0,0,1-5.2,5.72,14,14,0,0,1-3.09,1.94c-.54-.6-1.1-1.15-1.65-1.69l-.59-.58A3.24,3.24,0,0,0,7.81,18a3.24,3.24,0,0,0-2.28,1.05L3.65,21,3,21.6c-.43.41-.87.85-1.27,1.28a3.19,3.19,0,0,0-1,2.22,3.24,3.24,0,0,0,1,2.25l2.36,2.37A4.92,4.92,0,0,0,7.2,31.17a11.73,11.73,0,0,0,5.06-.88A29.57,29.57,0,0,0,21,25ZM7.34,29.62a3.26,3.26,0,0,1-2.15-1L2.84,26.27A1.69,1.69,0,0,1,2.3,25.1,1.6,1.6,0,0,1,2.85,24c.39-.43.8-.82,1.24-1.25l.67-.66,1.88-1.88a1.69,1.69,0,0,1,1.18-.6,1.69,1.69,0,0,1,1.18.6l.6.58c.59.59,1.15,1.14,1.69,1.75l0,0a1.24,1.24,0,0,0,1.41.31h0a15.21,15.21,0,0,0,3.61-2.22,25.5,25.5,0,0,0,5.54-6.09c.18-.28.32-.57.46-.84s.25-.49.38-.69a.16.16,0,0,1,0-.07,1.41,1.41,0,0,0,.15-.62,1.34,1.34,0,0,0-.43-.94L20.17,9a1.67,1.67,0,0,1-.56-1.16,1.62,1.62,0,0,1,.56-1.12L24,2.92a1.52,1.52,0,0,1,2.38,0c.28.27.55.54.84.84s.87.9,1.37,1.32a3.48,3.48,0,0,1,1.15,2.71c0,.11,0,.22,0,.33a15.19,15.19,0,0,1-1.63,5.45,30.63,30.63,0,0,1-8,10.24,28.19,28.19,0,0,1-8.31,5A10.19,10.19,0,0,1,7.34,29.62Z" transform="translate(-0.75 -0.81)"/></svg>