<?xml version="1.0" encoding="UTF-8"?>
<svg width="27px" height="36px" viewBox="0 0 27 36" version="1.1" xmlns="http://www.w3.org/2000/svg" xmlns:xlink="http://www.w3.org/1999/xlink">
    <!-- Generator: Sketch 52.2 (67145) - http://www.bohemiancoding.com/sketch -->
    <title>Untitled</title>
    <desc>Created with Sketch.</desc>
    <g id="Page-1" stroke="none" stroke-width="1" fill="none" fill-rule="evenodd">
        <g id="marker--orig" fill="#00338D" fill-rule="nonzero">
            <path d="M13.3130769,0 C5.96284096,0.00567217533 0.00572671548,5.90605199 6.78575035e-16,13.1862857 C-0.00641940576,15.0413077 0.390251395,16.8759776 1.16307692,18.5657143 C4.49653846,25.7657143 10.8726923,33.3977143 12.7523077,35.5577143 C12.8923904,35.7202478 13.0973206,35.813852 13.3130769,35.813852 C13.5288332,35.813852 13.7337634,35.7202478 13.8738462,35.5577143 C15.7534615,33.3977143 22.1815385,25.7862857 25.4630769,18.5657143 C26.2359025,16.8759776 26.6325733,15.0413077 26.6261538,13.1862857 C26.6204271,5.90605199 20.6633129,0.00567217533 13.3130769,0 Z M13.3130769,20.0365714 C9.49339063,20.0365714 6.39692308,16.969594 6.39692308,13.1862857 C6.39692308,9.40297738 9.49339063,6.336 13.3130769,6.336 C17.1327632,6.336 20.2292308,9.40297738 20.2292308,13.1862857 C20.2235119,16.9672453 17.1303919,20.0309071 13.3130769,20.0365714 Z" id="Shape"></path>
        </g>
    </g>
</svg>