<svg id="Capa_1" data-name="Capa 1" xmlns="http://www.w3.org/2000/svg" viewBox="0 0 30.83 23.63"><defs><style>.cls-1{fill:none;}</style></defs><title>sobre</title><path class="cls-1" d="M16.73,15.71l12.5-10.5H2.77l12.5,10.5A1.12,1.12,0,0,0,16.73,15.71Z" transform="translate(-0.59 -4.18)"/><path class="cls-1" d="M30.39,5.73,17.47,16.58a2.27,2.27,0,0,1-2.94,0L1.61,5.73V26.28a.51.51,0,0,0,.52.51H29.87a.51.51,0,0,0,.52-.51h0Z" transform="translate(-0.59 -4.18)"/><path d="M29.87,4.18H2.13A1.54,1.54,0,0,0,.59,5.72V26.28a1.54,1.54,0,0,0,1.54,1.54H29.87a1.54,1.54,0,0,0,1.54-1.54V5.72A1.54,1.54,0,0,0,29.87,4.18Zm-.64,1-12.5,10.5a1.12,1.12,0,0,1-1.46,0L2.77,5.21Zm.64,21.58H2.13a.51.51,0,0,1-.52-.51V5.73L14.53,16.58a2.27,2.27,0,0,0,2.94,0L30.39,5.73V26.28h0A.51.51,0,0,1,29.87,26.79Z" transform="translate(-0.59 -4.18)"/></svg>